<svg id="Layer_1" data-name="Layer 1" xmlns="http://www.w3.org/2000/svg" width="64" height="64" viewBox="0 0 64 64"><title>w</title><circle cx="34.23" cy="9.23" r="4.54"/><path d="M50.12,30.66a2.28,2.28,0,0,1-2,2.55H47.77l-8.31-1.69a2.48,2.48,0,0,1-1.39-1.26c-0.17-.4-2-4-2-4l-1.51,7,6.65,7.07a3.32,3.32,0,0,1,.94,3V56.86h0a2.7,2.7,0,0,1-5.38,0h0V44.66l-7-6.94S28.45,45,28.45,45.56a3.67,3.67,0,0,1-1,1.86L18.68,57.71a2.68,2.68,0,1,1-4-3.52l7.44-8.83,2.08-11.9s2.08-10.07,2.23-10.54l-2.26,1.26L20.64,31a2.33,2.33,0,1,1-4.09-2l3.87-7.24a3.35,3.35,0,0,1,1-1.24c0.55-.25,8.8-5,8.8-5a5,5,0,0,1,3.32-.32,7.84,7.84,0,0,1,3.27,2.26c0.45,0.47,5,9.77,5,9.92s-0.27,0,0,.15,5.31,1,6.57,1.19A2.28,2.28,0,0,1,50.12,30.66Z"/></svg>