<svg id="Layer_1" data-name="Layer 1" xmlns="http://www.w3.org/2000/svg" width="64" height="64" viewBox="0 0 64 64"><defs><style>.cls-1{fill:#666;}</style></defs><title>twitter</title><path class="cls-1" d="M56.3,17.9a17.17,17.17,0,0,1-5.6,1.5A10.08,10.08,0,0,0,55,14a21.06,21.06,0,0,1-6.2,2.4A9.69,9.69,0,0,0,32,23a7.8,7.8,0,0,0,.3,2.2,27.7,27.7,0,0,1-20-10.1A10.23,10.23,0,0,0,11,20a9.77,9.77,0,0,0,4.3,8.1,9.33,9.33,0,0,1-4.4-1.2V27a9.66,9.66,0,0,0,7.8,9.5,10.9,10.9,0,0,1-2.6.3,11,11,0,0,1-1.8-.2,9.48,9.48,0,0,0,9.1,6.7,19.43,19.43,0,0,1-12,4.2,17,17,0,0,1-2.3-.1A27.15,27.15,0,0,0,24,51.8c17.8,0,27.6-14.8,27.6-27.6V22.9A18.76,18.76,0,0,0,56.3,17.9Z"/></svg>